solid OpenSCAD_Model
  facet normal -1 0 0
    outer loop
      vertex 200 14.5 0.2
      vertex 200 94.5 3.5
      vertex 200 94.5 0.2
    endloop
  endfacet
  facet normal -1 -0 0
    outer loop
      vertex 200 94.5 3.5
      vertex 200 14.5 0.2
      vertex 200 14.5 3.5
    endloop
  endfacet
  facet normal -0 0 1
    outer loop
      vertex 205 94.5 8.5
      vertex 210 14.5 8.5
      vertex 210 94.5 8.5
    endloop
  endfacet
  facet normal 0 0 1
    outer loop
      vertex 210 14.5 8.5
      vertex 205 94.5 8.5
      vertex 205 14.5 8.5
    endloop
  endfacet
  facet normal 1 0 0
    outer loop
      vertex 210 94.5 8.5
      vertex 210 85.8856 4.8
      vertex 210 94.5 0.2
    endloop
  endfacet
  facet normal 1 0 0
    outer loop
      vertex 210 94.5 8.5
      vertex 210 84.5 5.6
      vertex 210 85.8856 4.8
    endloop
  endfacet
  facet normal 1 0 0
    outer loop
      vertex 210 83.1144 4.8
      vertex 210 25.8856 5
      vertex 210 83.1144 3.2
    endloop
  endfacet
  facet normal 1 0 0
    outer loop
      vertex 210 84.5 5.6
      vertex 210 25.8856 5
      vertex 210 83.1144 4.8
    endloop
  endfacet
  facet normal 1 -0 0
    outer loop
      vertex 210 24.5 5.8
      vertex 210 84.5 5.6
      vertex 210 94.5 8.5
    endloop
  endfacet
  facet normal 1 0 0
    outer loop
      vertex 210 84.5 5.6
      vertex 210 24.5 5.8
      vertex 210 25.8856 5
    endloop
  endfacet
  facet normal 1 0 0
    outer loop
      vertex 210 14.5 0.2
      vertex 210 23.1144 5
      vertex 210 14.5 8.5
    endloop
  endfacet
  facet normal 1 0 0
    outer loop
      vertex 210 24.5 5.8
      vertex 210 14.5 8.5
      vertex 210 23.1144 5
    endloop
  endfacet
  facet normal 1 -0 0
    outer loop
      vertex 210 14.5 8.5
      vertex 210 24.5 5.8
      vertex 210 94.5 8.5
    endloop
  endfacet
  facet normal 1 -0 0
    outer loop
      vertex 210 85.8856 3.2
      vertex 210 94.5 0.2
      vertex 210 85.8856 4.8
    endloop
  endfacet
  facet normal 1 -0 0
    outer loop
      vertex 210 84.5 2.4
      vertex 210 94.5 0.2
      vertex 210 85.8856 3.2
    endloop
  endfacet
  facet normal 1 -0 0
    outer loop
      vertex 210 25.8856 3.4
      vertex 210 83.1144 3.2
      vertex 210 25.8856 5
    endloop
  endfacet
  facet normal 1 0 0
    outer loop
      vertex 210 83.1144 3.2
      vertex 210 25.8856 3.4
      vertex 210 84.5 2.4
    endloop
  endfacet
  facet normal 1 -0 0
    outer loop
      vertex 210 24.5 2.6
      vertex 210 84.5 2.4
      vertex 210 25.8856 3.4
    endloop
  endfacet
  facet normal 1 0 0
    outer loop
      vertex 210 14.5 0.2
      vertex 210 84.5 2.4
      vertex 210 24.5 2.6
    endloop
  endfacet
  facet normal 1 0 0
    outer loop
      vertex 210 84.5 2.4
      vertex 210 14.5 0.2
      vertex 210 94.5 0.2
    endloop
  endfacet
  facet normal 1 0 0
    outer loop
      vertex 210 23.1144 3.4
      vertex 210 14.5 0.2
      vertex 210 24.5 2.6
    endloop
  endfacet
  facet normal 1 0 0
    outer loop
      vertex 210 23.1144 5
      vertex 210 14.5 0.2
      vertex 210 23.1144 3.4
    endloop
  endfacet
  facet normal 1 0 0
    outer loop
      vertex 210 24.5 5.8
      vertex 210 25.8856 3.4
      vertex 210 25.8856 5
    endloop
  endfacet
  facet normal 1 0 0
    outer loop
      vertex 210 24.5 5.8
      vertex 210 24.5 2.6
      vertex 210 25.8856 3.4
    endloop
  endfacet
  facet normal 1 -0 0
    outer loop
      vertex 210 23.1144 5
      vertex 210 24.5 2.6
      vertex 210 24.5 5.8
    endloop
  endfacet
  facet normal 1 0 0
    outer loop
      vertex 210 24.5 2.6
      vertex 210 23.1144 5
      vertex 210 23.1144 3.4
    endloop
  endfacet
  facet normal 1 0 0
    outer loop
      vertex 210 84.5 5.6
      vertex 210 85.8856 3.2
      vertex 210 85.8856 4.8
    endloop
  endfacet
  facet normal 1 0 0
    outer loop
      vertex 210 84.5 5.6
      vertex 210 84.5 2.4
      vertex 210 85.8856 3.2
    endloop
  endfacet
  facet normal 1 -0 0
    outer loop
      vertex 210 83.1144 4.8
      vertex 210 84.5 2.4
      vertex 210 84.5 5.6
    endloop
  endfacet
  facet normal 1 0 0
    outer loop
      vertex 210 84.5 2.4
      vertex 210 83.1144 4.8
      vertex 210 83.1144 3.2
    endloop
  endfacet
  facet normal 0 1 0
    outer loop
      vertex 210 94.5 8.5
      vertex 205 94.5 3.5
      vertex 205 94.5 8.5
    endloop
  endfacet
  facet normal 0 1 -0
    outer loop
      vertex 210 94.5 0.2
      vertex 205 94.5 3.5
      vertex 210 94.5 8.5
    endloop
  endfacet
  facet normal 0 1 0
    outer loop
      vertex 200 94.5 0.2
      vertex 205 94.5 3.5
      vertex 210 94.5 0.2
    endloop
  endfacet
  facet normal 0 1 0
    outer loop
      vertex 205 94.5 3.5
      vertex 200 94.5 0.2
      vertex 200 94.5 3.5
    endloop
  endfacet
  facet normal 0 0 -1
    outer loop
      vertex 200 14.5 0.2
      vertex 210 94.5 0.2
      vertex 210 14.5 0.2
    endloop
  endfacet
  facet normal -0 0 -1
    outer loop
      vertex 210 94.5 0.2
      vertex 200 14.5 0.2
      vertex 200 94.5 0.2
    endloop
  endfacet
  facet normal 0 -1 0
    outer loop
      vertex 200 14.5 3.5
      vertex 200 14.5 0.2
      vertex 205 14.5 3.5
    endloop
  endfacet
  facet normal 0 -1 0
    outer loop
      vertex 205 14.5 3.5
      vertex 210 14.5 8.5
      vertex 205 14.5 8.5
    endloop
  endfacet
  facet normal 0 -1 0
    outer loop
      vertex 205 14.5 3.5
      vertex 210 14.5 0.2
      vertex 210 14.5 8.5
    endloop
  endfacet
  facet normal 0 -1 0
    outer loop
      vertex 210 14.5 0.2
      vertex 205 14.5 3.5
      vertex 200 14.5 0.2
    endloop
  endfacet
  facet normal -1 0 0
    outer loop
      vertex 205 14.5 3.5
      vertex 205 94.5 8.5
      vertex 205 94.5 3.5
    endloop
  endfacet
  facet normal -1 -0 0
    outer loop
      vertex 205 94.5 8.5
      vertex 205 14.5 3.5
      vertex 205 14.5 8.5
    endloop
  endfacet
  facet normal -0 0 1
    outer loop
      vertex 200 94.5 3.5
      vertex 205 14.5 3.5
      vertex 205 94.5 3.5
    endloop
  endfacet
  facet normal 0 0 1
    outer loop
      vertex 205 14.5 3.5
      vertex 200 94.5 3.5
      vertex 200 14.5 3.5
    endloop
  endfacet
endsolid OpenSCAD_Model
